<?xml version="1.0" encoding="UTF-8" standalone="no"?>
<svg
   width="163"
   height="56"
   viewBox="0 0 163 56"
   fill="none"
   version="1.1"
   id="svg8"
   sodipodi:docname="newdiscord.svg"
   inkscape:version="1.3 (0e150ed6c4, 2023-07-21)"
   xmlns:inkscape="http://www.inkscape.org/namespaces/inkscape"
   xmlns:sodipodi="http://sodipodi.sourceforge.net/DTD/sodipodi-0.dtd"
   xmlns="http://www.w3.org/2000/svg"
   xmlns:svg="http://www.w3.org/2000/svg">
  <sodipodi:namedview
     id="namedview8"
     pagecolor="#ffffff"
     bordercolor="#000000"
     borderopacity="0.25"
     inkscape:showpageshadow="2"
     inkscape:pageopacity="0.0"
     inkscape:pagecheckerboard="0"
     inkscape:deskcolor="#d1d1d1"
     inkscape:zoom="3.3932292"
     inkscape:cx="77.949347"
     inkscape:cy="44.353031"
     inkscape:window-width="1920"
     inkscape:window-height="991"
     inkscape:window-x="-9"
     inkscape:window-y="-9"
     inkscape:window-maximized="1"
     inkscape:current-layer="svg8" />
  <defs
     id="defs8">
    <filter
       id="filter0_d_28_781"
       x="6.2853498"
       y="2.28565"
       width="51.4286"
       height="51.4286"
       filterUnits="userSpaceOnUse"
       color-interpolation-filters="sRGB">
      <feFlood
         flood-opacity="0"
         result="BackgroundImageFix"
         id="feFlood3" />
      <feColorMatrix
         in="SourceAlpha"
         type="matrix"
         values="0 0 0 0 0 0 0 0 0 0 0 0 0 0 0 0 0 0 127 0"
         result="hardAlpha"
         id="feColorMatrix3" />
      <feOffset
         id="feOffset3" />
      <feGaussianBlur
         stdDeviation="2.85714"
         id="feGaussianBlur3" />
      <feComposite
         in2="hardAlpha"
         operator="out"
         id="feComposite3" />
      <feColorMatrix
         type="matrix"
         values="0 0 0 0 0 0 0 0 0 0 0 0 0 0 0 0 0 0 0.25 0"
         id="feColorMatrix4" />
      <feBlend
         mode="normal"
         in2="BackgroundImageFix"
         result="effect1_dropShadow_28_781"
         id="feBlend4" />
      <feBlend
         mode="normal"
         in="SourceGraphic"
         in2="effect1_dropShadow_28_781"
         result="shape"
         id="feBlend5" />
    </filter>
    <filter
       id="filter1_d_28_781"
       x="54.399601"
       y="3.89994"
       width="131.2"
       height="48.200001"
       filterUnits="userSpaceOnUse"
       color-interpolation-filters="sRGB">
      <feFlood
         flood-opacity="0"
         result="BackgroundImageFix"
         id="feFlood5" />
      <feColorMatrix
         in="SourceAlpha"
         type="matrix"
         values="0 0 0 0 0 0 0 0 0 0 0 0 0 0 0 0 0 0 127 0"
         result="hardAlpha"
         id="feColorMatrix5" />
      <feOffset
         id="feOffset5" />
      <feGaussianBlur
         stdDeviation="2.8"
         id="feGaussianBlur5" />
      <feComposite
         in2="hardAlpha"
         operator="out"
         id="feComposite5" />
      <feColorMatrix
         type="matrix"
         values="0 0 0 0 0 0 0 0 0 0 0 0 0 0 0 0 0 0 0.25 0"
         id="feColorMatrix6" />
      <feBlend
         mode="normal"
         in2="BackgroundImageFix"
         result="effect1_dropShadow_28_781"
         id="feBlend6" />
      <feBlend
         mode="normal"
         in="SourceGraphic"
         in2="effect1_dropShadow_28_781"
         result="shape"
         id="feBlend7" />
    </filter>
    <linearGradient
       id="paint0_linear_28_781"
       x1="95.999603"
       y1="-6.1035102e-05"
       x2="95.999603"
       y2="55.999901"
       gradientUnits="userSpaceOnUse">
      <stop
         stop-color="#1B1D31"
         id="stop7" />
      <stop
         offset="1"
         stop-color="#11121F"
         id="stop8" />
    </linearGradient>
    <clipPath
       clipPathUnits="userSpaceOnUse"
       id="clipPath4">
      <rect
         style="fill:#e8e8e8;fill-opacity:1"
         id="rect4"
         width="188.04951"
         height="94.30545"
         x="-25.049885"
         y="-20.334612"
         rx="8" />
    </clipPath>
    <clipPath
       clipPathUnits="userSpaceOnUse"
       id="clipPath7">
      <rect
         style="fill:#e8e8e8;fill-opacity:1"
         id="rect7"
         width="220.46701"
         height="125.54414"
         x="-57.467381"
         y="-51.573292"
         rx="8" />
    </clipPath>
  </defs>
  <g
     id="g4"
     clip-path="url(#clipPath7)">
    <g
       id="g2">
      <rect
         x="-0.000366211"
         y="-6.10352e-05"
         width="163"
         height="56"
         rx="8"
         fill="url(#paint0_linear_28_781)"
         id="rect1"
         style="fill:url(#paint0_linear_28_781)" />
      <rect
         x="1.04963"
         y="1.04994"
         width="160.89999"
         height="53.900002"
         rx="6.9499998"
         stroke="#ffffff"
         stroke-opacity="0.15"
         stroke-width="2.1"
         id="rect3" />
    </g>
    <g
       filter="url(#filter0_d_28_781)"
       id="g1">
      <path
         d="m 45.8599,15.493 c -2.5622,-1.1562 -5.2846,-1.997 -8.1458,-2.4911 -0.0534,0 -0.1068,0 -0.1281,0.0631 -0.3524,0.6202 -0.7474,1.419 -1.0143,2.0496 -3.096,-0.4519 -6.1387,-0.4519 -9.1494,0 -0.2776,-0.6516 -0.6726,-1.44 -1.0676,-2.0496 -0.032,-0.042 -0.0747,-0.0736 -0.1281,-0.0631 -2.4555,0.4835 -5.5943,1.3665 -8.1139,2.4911 -0.0213,0 -0.0427,0.021 -0.0533,0.0421 -5.2313,7.6729 -6.6192,15.0305 -5.8719,22.3881 0,0.0315 0.0214,0.0735 0.0534,0.1051 3.4163,2.4805 6.7259,3.9941 9.9928,4.9716 0.0534,0 0.1068,0 0.1388,-0.042 0.7687,-1.0301 1.452,-2.1232 2.0498,-3.2794 0.032,-0.0631 0,-0.1472 -0.0747,-0.1682 -1.0676,-0.4204 -2.1352,-0.9039 -3.1281,-1.4715 -0.0747,-0.0421 -0.0854,-0.1577 0,-0.2102 0.2135,-0.1577 0.427,-0.3154 0.6192,-0.473 0.032,-0.0316 0.0854,-0.0316 0.1281,-0.021 6.5551,2.943 13.6654,2.943 20.0711,0 0.0427,-0.0211 0.0961,-0.0106 0.1281,0.0105 0.2028,0.1681 0.4057,0.3258 0.6192,0.4835 0.0748,0.0525 0.0641,0.1681 0,0.2102 -0.9929,0.5781 -2.0284,1.0511 -3.1281,1.4715 -0.0747,0.0315 -0.1067,0.1051 -0.064,0.1787 0.5978,1.1562 1.2918,2.2388 2.0284,3.2583 0.032,0.0421 0.0854,0.0631 0.1388,0.0421 3.2669,-0.9985 6.5872,-2.5016 10.0142,-4.9716 0.032,-0.0211 0.0534,-0.0526 0.0534,-0.1052 0.8327,-8.5032 -1.3986,-15.8713 -5.9146,-22.3881 0,-0.021 -0.032,-0.042 -0.0534,-0.042 z M 25.3618,33.4666 c -2.0284,0 -3.6299,-1.7869 -3.6299,-3.9942 0,-2.2072 1.6015,-3.9941 3.6299,-3.9941 2.0285,0 3.6299,1.7869 3.6299,3.9941 0,2.2073 -1.6014,3.9942 -3.6299,3.9942 z m 13.3451,0 c -2.0284,0 -3.6298,-1.7869 -3.6298,-3.9942 0,-2.2072 1.6014,-3.9941 3.6298,-3.9941 2.0285,0 3.6299,1.7869 3.6299,3.9941 0,2.2073 -1.6014,3.9942 -3.6299,3.9942 z"
         fill="#5865f2"
         id="path1" />
    </g>
    <g
       filter="url(#filter1_d_28_781)"
       id="g3">
      <path
         d="M 65.5053,43.4999 H 60.9354 V 31.1363 h 4.5639 c 1.2597,0 2.3443,0.2475 3.2539,0.7425 0.9136,0.491 1.6179,1.1994 2.1129,2.125 0.495,0.9217 0.7426,2.0244 0.7426,3.3083 0,1.2879 -0.2476,2.3946 -0.7426,3.3203 -0.491,0.9257 -1.1933,1.636 -2.1069,2.131 -0.9136,0.491 -1.9982,0.7365 -3.2539,0.7365 z m -1.5817,-2.5475 h 1.467 c 0.6922,0 1.2778,-0.1168 1.7568,-0.3502 0.4829,-0.2374 0.8471,-0.6218 1.0926,-1.153 0.2496,-0.5353 0.3743,-1.2477 0.3743,-2.1371 0,-0.8895 -0.1247,-1.5978 -0.3743,-2.125 -0.2495,-0.5313 -0.6177,-0.9136 -1.1047,-1.147 -0.483,-0.2375 -1.0786,-0.3562 -1.7869,-0.3562 h -1.4248 z m 9.4297,2.5475 v -9.2727 h 2.9521 v 9.2727 z m 1.4791,-10.3533 c -0.4146,0 -0.7707,-0.1368 -1.0686,-0.4105 -0.2978,-0.2777 -0.4467,-0.6118 -0.4467,-1.0021 0,-0.3864 0.1489,-0.7164 0.4467,-0.9901 0.2979,-0.2777 0.654,-0.4165 1.0686,-0.4165 0.4185,0 0.7747,0.1388 1.0685,0.4165 0.2978,0.2737 0.4467,0.6037 0.4467,0.9901 0,0.3903 -0.1489,0.7244 -0.4467,1.0021 -0.2938,0.2737 -0.65,0.4105 -1.0685,0.4105 z m 11.4475,3.9119 -2.7106,0.0725 c -0.0282,-0.1932 -0.1046,-0.3643 -0.2294,-0.5132 -0.1247,-0.1529 -0.2877,-0.2716 -0.489,-0.3561 -0.1972,-0.0886 -0.4266,-0.1329 -0.6882,-0.1329 -0.3421,0 -0.6339,0.0685 -0.8753,0.2053 -0.2375,0.1368 -0.3542,0.322 -0.3502,0.5554 -0.004,0.1811 0.0684,0.3381 0.2173,0.4709 0.153,0.1328 0.4246,0.2394 0.815,0.3199 l 1.787,0.3381 c 0.9256,0.1771 1.6138,0.4709 2.0646,0.8814 0.4548,0.4105 0.6842,0.9538 0.6882,1.63 -0.004,0.6359 -0.1932,1.1892 -0.5675,1.6601 -0.3702,0.4709 -0.8773,0.8371 -1.5213,1.0987 -0.6439,0.2576 -1.3804,0.3864 -2.2095,0.3864 -1.3241,0 -2.3685,-0.2717 -3.1332,-0.815 -0.7606,-0.5473 -1.1953,-1.2798 -1.3039,-2.1974 l 2.9158,-0.0725 c 0.0644,0.3381 0.2314,0.5957 0.5011,0.7728 0.2696,0.177 0.6137,0.2656 1.0323,0.2656 0.3783,0 0.6862,-0.0704 0.9236,-0.2113 0.2375,-0.1409 0.3582,-0.328 0.3622,-0.5614 -0.004,-0.2093 -0.0965,-0.3763 -0.2777,-0.5011 C 83.0501,40.2259 82.7664,40.1253 82.38,40.0528 L 80.7621,39.745 c -0.9296,-0.1691 -1.6219,-0.481 -2.0767,-0.9358 -0.4547,-0.4588 -0.6801,-1.0423 -0.6761,-1.7507 -0.004,-0.6198 0.161,-1.149 0.495,-1.5877 0.3341,-0.4427 0.809,-0.7808 1.4247,-1.0142 0.6158,-0.2334 1.3423,-0.3501 2.1794,-0.3501 1.2557,0 2.2457,0.2636 2.9702,0.7908 0.7244,0.5232 1.1248,1.2436 1.2013,2.1612 z m 6.0113,6.6165 c -0.978,0 -1.8171,-0.2012 -2.5174,-0.6037 -0.6963,-0.4024 -1.2316,-0.9619 -1.6059,-1.6783 -0.3742,-0.7204 -0.5614,-1.5535 -0.5614,-2.4992 0,-0.9499 0.1872,-1.7829 0.5614,-2.4993 0.3784,-0.7204 0.9157,-1.2819 1.6119,-1.6843 0.7003,-0.4025 1.5354,-0.6037 2.5053,-0.6037 0.8573,0 1.6038,0.1549 2.2397,0.4648 0.64,0.3099 1.139,0.7486 1.4972,1.3161 0.3622,0.5634 0.5534,1.2255 0.5735,1.9861 H 93.8366 C 93.7803,37.3986 93.6193,37.0263 93.3537,36.7567 93.0921,36.487 92.75,36.3522 92.3274,36.3522 c -0.3421,0 -0.6419,0.0966 -0.8995,0.2898 -0.2576,0.1891 -0.4588,0.4709 -0.6037,0.8452 -0.1409,0.3702 -0.2113,0.829 -0.2113,1.3764 0,0.5473 0.0704,1.0102 0.2113,1.3885 0.1449,0.3743 0.3461,0.658 0.6037,0.8512 0.2576,0.1891 0.5574,0.2837 0.8995,0.2837 0.2737,0 0.5151,-0.0583 0.7244,-0.1751 0.2133,-0.1167 0.3884,-0.2877 0.5252,-0.5131 0.1369,-0.2294 0.2234,-0.5071 0.2596,-0.8331 h 2.7589 c -0.0282,0.7647 -0.2193,1.4328 -0.5735,2.0043 -0.3501,0.5715 -0.8432,1.0162 -1.4791,1.3341 -0.6318,0.3139 -1.3824,0.4709 -2.2517,0.4709 z m 10.1438,0 c -0.974,0 -1.811,-0.1992 -2.5116,-0.5977 -0.6963,-0.4024 -1.2336,-0.9618 -1.6119,-1.6782 -0.3743,-0.7204 -0.5614,-1.5555 -0.5614,-2.5053 0,-0.9539 0.1871,-1.789 0.5614,-2.5054 0.3783,-0.7204 0.9156,-1.2798 1.6119,-1.6782 0.7006,-0.4025 1.5376,-0.6037 2.5116,-0.6037 0.974,0 1.809,0.2012 2.505,0.6037 0.7,0.3984 1.238,0.9578 1.612,1.6782 0.378,0.7164 0.567,1.5515 0.567,2.5054 0,0.9498 -0.189,1.7849 -0.567,2.5053 -0.374,0.7164 -0.912,1.2758 -1.612,1.6782 -0.696,0.3985 -1.531,0.5977 -2.505,0.5977 z m 0.018,-2.2276 c 0.354,0 0.654,-0.1087 0.899,-0.326 0.246,-0.2173 0.433,-0.5192 0.562,-0.9056 0.133,-0.3863 0.199,-0.8331 0.199,-1.3402 0,-0.5151 -0.066,-0.9659 -0.199,-1.3522 -0.129,-0.3864 -0.316,-0.6882 -0.562,-0.9056 -0.245,-0.2173 -0.545,-0.326 -0.899,-0.326 -0.366,0 -0.676,0.1087 -0.93,0.326 -0.249,0.2174 -0.441,0.5192 -0.573,0.9056 -0.129,0.3863 -0.194,0.8371 -0.194,1.3522 0,0.5071 0.065,0.9539 0.194,1.3402 0.132,0.3864 0.324,0.6883 0.573,0.9056 0.254,0.2173 0.564,0.326 0.93,0.326 z m 6.179,2.0525 v -9.2727 h 2.867 v 1.6904 h 0.097 c 0.169,-0.6118 0.444,-1.0666 0.827,-1.3644 0.382,-0.3018 0.827,-0.4528 1.334,-0.4528 0.137,0 0.278,0.0101 0.423,0.0302 0.144,0.0161 0.279,0.0423 0.404,0.0785 v 2.5657 c -0.141,-0.0483 -0.326,-0.0865 -0.555,-0.1147 -0.226,-0.0282 -0.427,-0.0423 -0.604,-0.0423 -0.35,0 -0.666,0.0785 -0.948,0.2355 -0.278,0.1529 -0.497,0.3682 -0.658,0.6459 -0.157,0.2737 -0.235,0.5957 -0.235,0.9659 v 5.0348 z m 10.06,0.1328 c -0.684,0 -1.306,-0.177 -1.865,-0.5312 -0.56,-0.3542 -1.006,-0.8854 -1.34,-1.5938 -0.334,-0.7083 -0.501,-1.5877 -0.501,-2.6381 0,-1.0907 0.173,-1.9882 0.519,-2.6925 0.346,-0.7043 0.799,-1.2255 1.358,-1.5635 0.563,-0.3381 1.169,-0.5071 1.817,-0.5071 0.487,0 0.904,0.0845 1.25,0.2535 0.346,0.165 0.632,0.3783 0.857,0.6399 0.225,0.2616 0.396,0.5333 0.513,0.815 h 0.06 v -4.6786 h 2.953 v 12.3636 h -2.922 V 41.9967 H 121.3 c -0.125,0.2858 -0.302,0.5534 -0.531,0.803 -0.23,0.2495 -0.517,0.4507 -0.863,0.6036 -0.342,0.153 -0.747,0.2294 -1.214,0.2294 z m 1.026,-2.3 c 0.359,0 0.665,-0.1006 0.918,-0.3019 0.254,-0.2052 0.449,-0.493 0.586,-0.8633 0.136,-0.3702 0.205,-0.8049 0.205,-1.3039 0,-0.5071 -0.069,-0.9438 -0.205,-1.31 -0.133,-0.3663 -0.328,-0.648 -0.586,-0.8452 -0.253,-0.1972 -0.559,-0.2958 -0.918,-0.2958 -0.366,0 -0.676,0.1006 -0.929,0.3018 -0.254,0.2013 -0.447,0.485 -0.58,0.8512 -0.129,0.3663 -0.193,0.7989 -0.193,1.298 0,0.499 0.066,0.9337 0.199,1.3039 0.133,0.3703 0.324,0.6581 0.574,0.8633 0.253,0.2013 0.563,0.3019 0.929,0.3019 z"
         fill="#5865f2"
         id="path3" />
    </g>
    <style>
    @import url("https://fonts.googleapis.com/css2?family=Inter:wght@500&amp;display=swap");
    </style>
    <text
       xml:space="preserve"
       style="font-size:16px;font-family:Inter;-inkscape-font-specification:Inter;letter-spacing:0px;display:inline;fill:#e8e8e8;fill-opacity:1"
       x="59.948456"
       y="24.488554"
       id="text8"><tspan
         sodipodi:role="line"
         id="tspan8"
         x="59.948456"
         y="24.488554"
         style="font-style:normal;font-variant:normal;font-weight:500;font-stretch:normal;font-size:16px;font-family:Inter;-inkscape-font-specification:'Inter Medium';letter-spacing:0px;fill:#e8e8e8;fill-opacity:1">Online 1000</tspan></text>
  </g>
</svg>
