<svg xmlns="http://www.w3.org/2000/svg" xmlns:svg="http://www.w3.org/2000/svg" id="svg8" width="180" height="56" fill="none" version="1.1"><rect id="rect1" width="180" height="56" fill="url(#a)" rx="8"/><g id="g1" filter="url(#b)"><path id="path1" fill="#FF424E" d="M15.572 12.286v31.428h5.777V12.286zm21.062 0c-6.522 0-11.83 5.292-11.83 11.8 0 6.485 5.308 11.762 11.83 11.762 6.503 0 11.795-5.277 11.795-11.763 0-6.507-5.29-11.8-11.795-11.8"/></g><g id="g3" filter="url(#c)"><path id="path3" fill="#FF424E" d="M60.936 43.5V31.136h5.107q1.388 0 2.396.544 1.015.537 1.564 1.503.55.96.55 2.233 0 1.28-.562 2.24-.556.954-1.588 1.48-1.032.525-2.45.524H62.8v-2.354h2.596q.675 0 1.129-.235.459-.236.694-.658.235-.429.235-.997 0-.573-.235-.99a1.6 1.6 0 0 0-.694-.652q-.459-.23-1.13-.23h-1.472V43.5zm13.371.157q-.887 0-1.575-.296a2.46 2.46 0 0 1-1.081-.906q-.393-.609-.392-1.527 0-.773.271-1.304t.749-.863a3.5 3.5 0 0 1 1.099-.501 7 7 0 0 1 1.328-.236q.79-.072 1.273-.15.484-.085.7-.236a.51.51 0 0 0 .224-.44v-.03q0-.465-.32-.72-.319-.252-.863-.253-.585 0-.942.254a1.12 1.12 0 0 0-.453.7l-2.722-.097a3.2 3.2 0 0 1 .622-1.509q.506-.67 1.388-1.05.888-.387 2.131-.387.888 0 1.636.212.75.206 1.304.603.555.393.857.966.309.575.308 1.31V43.5h-2.777v-1.292H77q-.248.471-.634.797-.38.326-.9.489a3.8 3.8 0 0 1-1.159.163m.912-1.932q.477 0 .857-.193.387-.193.616-.531.23-.344.23-.797v-.882a2 2 0 0 1-.309.121 5 5 0 0 1-.386.103 7 7 0 0 1-.435.084q-.222.036-.428.066a2.7 2.7 0 0 0-.713.206 1.1 1.1 0 0 0-.446.362.9.9 0 0 0-.151.52q0 .457.326.7.331.24.839.241m11.67-7.498V36.4h-5.85v-2.173zm-4.625-2.221h2.952v8.578q0 .272.085.44.09.164.26.236.168.066.404.067.168 0 .356-.03.193-.037.29-.061l.446 2.131q-.21.06-.597.15a5 5 0 0 1-.912.116q-1.038.048-1.78-.242a2.3 2.3 0 0 1-1.13-.917q-.386-.622-.374-1.564zm6.13 11.494v-9.273h2.868v1.69h.097q.253-.917.827-1.364a2.1 2.1 0 0 1 1.334-.453q.206 0 .422.03.218.025.405.079v2.566a3 3 0 0 0-.555-.115 5 5 0 0 0-.604-.042q-.525 0-.948.235a1.7 1.7 0 0 0-.658.646 1.9 1.9 0 0 0-.235.966V43.5zm11.009.175q-1.455 0-2.512-.574a3.97 3.97 0 0 1-1.618-1.648q-.56-1.074-.56-2.553 0-1.437.567-2.512.567-1.08 1.6-1.678 1.032-.603 2.432-.604.99 0 1.811.308.822.309 1.419.912.597.604.93 1.49.332.883.332 2.023v.737h-8.06V37.86h5.313a1.67 1.67 0 0 0-.223-.839 1.5 1.5 0 0 0-.598-.573 1.7 1.7 0 0 0-.863-.212q-.495 0-.888.224a1.68 1.68 0 0 0-.863 1.449v1.744q0 .568.223.996.224.423.634.658t.978.236q.393 0 .712-.109a1.5 1.5 0 0 0 .55-.32q.229-.21.344-.519l2.711.079a3.36 3.36 0 0 1-.743 1.587q-.567.67-1.491 1.045-.924.368-2.137.368m10.237 0q-1.461 0-2.511-.598a4.1 4.1 0 0 1-1.612-1.678q-.562-1.08-.562-2.505 0-1.431.562-2.506a4.07 4.07 0 0 1 1.612-1.678q1.05-.603 2.511-.604 1.461 0 2.505.604a4 4 0 0 1 1.612 1.678q.568 1.075.568 2.506 0 1.425-.568 2.505a4.07 4.07 0 0 1-1.612 1.678q-1.044.598-2.505.598m.018-2.228q.531 0 .9-.326.368-.326.561-.905.2-.58.199-1.34 0-.773-.199-1.353-.194-.58-.561-.905a1.3 1.3 0 0 0-.9-.326q-.549 0-.93.326-.373.326-.573.905-.193.58-.193 1.352 0 .762.193 1.34.2.58.573.906.381.327.93.326m9.131-3.236v5.29h-2.952v-9.273h2.807v1.703h.103a2.6 2.6 0 0 1 1.05-1.335q.743-.489 1.769-.489.978 0 1.696.441.724.434 1.123 1.22.405.778.399 1.823v5.91h-2.952v-5.33q.006-.773-.393-1.208-.392-.435-1.093-.435-.464 0-.821.205a1.36 1.36 0 0 0-.543.574q-.187.374-.193.906"/></g><rect id="rect3" width="177.9" height="53.9" x="1.05" y="1.05" stroke="#fff" stroke-opacity=".15" stroke-width="2.1" rx="6.95"/><defs id="defs8"><filter id="b" width="51.429" height="51.429" x="6.285" y="2.286" color-interpolation-filters="sRGB" filterUnits="userSpaceOnUse"><feFlood id="feFlood3" flood-opacity="0" result="BackgroundImageFix"/><feColorMatrix id="feColorMatrix3" in="SourceAlpha" result="hardAlpha" values="0 0 0 0 0 0 0 0 0 0 0 0 0 0 0 0 0 0 127 0"/><feOffset id="feOffset3"/><feGaussianBlur id="feGaussianBlur3" stdDeviation="2.857"/><feComposite id="feComposite3" in2="hardAlpha" operator="out"/><feColorMatrix id="feColorMatrix4" values="0 0 0 0 0 0 0 0 0 0 0 0 0 0 0 0 0 0 0.25 0"/><feBlend id="feBlend4" in2="BackgroundImageFix" result="effect1_dropShadow_28_523"/><feBlend id="feBlend5" in="SourceGraphic" in2="effect1_dropShadow_28_523" result="shape"/></filter><filter id="c" width="119.2" height="48.2" x="54.4" y="3.9" color-interpolation-filters="sRGB" filterUnits="userSpaceOnUse"><feFlood id="feFlood5" flood-opacity="0" result="BackgroundImageFix"/><feColorMatrix id="feColorMatrix5" in="SourceAlpha" result="hardAlpha" values="0 0 0 0 0 0 0 0 0 0 0 0 0 0 0 0 0 0 127 0"/><feOffset id="feOffset5"/><feGaussianBlur id="feGaussianBlur5" stdDeviation="2.8"/><feComposite id="feComposite5" in2="hardAlpha" operator="out"/><feColorMatrix id="feColorMatrix6" values="0 0 0 0 0 0 0 0 0 0 0 0 0 0 0 0 0 0 0.25 0"/><feBlend id="feBlend6" in2="BackgroundImageFix" result="effect1_dropShadow_28_523"/><feBlend id="feBlend7" in="SourceGraphic" in2="effect1_dropShadow_28_523" result="shape"/></filter><linearGradient id="a" x1="90" x2="90" y1="0" y2="56" gradientUnits="userSpaceOnUse"><stop id="stop7" stop-color="#300B0D"/><stop id="stop8" offset="1" stop-color="#210709"/></linearGradient></defs><text xml:space="preserve" style="font-weight:500;font-size:16px;font-family:Inter;-inkscape-font-specification:'Inter Medium';letter-spacing:0;display:inline;fill:#e8e8e8;fill-opacity:1" id="text8" x="60" y="24.501"><tspan id="tspan8" x="60" y="24.501">31 Supporters</tspan></text></svg>